<mxfile host="app.diagrams.net" modified="2023-12-09T15:11:59.682Z" agent="Mozilla/5.0 (Windows NT 10.0; Win64; x64) AppleWebKit/537.36 (KHTML, like Gecko) Chrome/120.0.0.0 Safari/537.36" etag="WhbLSWrC6d0FujDIOJGt" version="22.1.7" type="google">
  <diagram name="ページ1" id="En87qMGS9kpCGX0fbQGY">
    <mxGraphModel grid="1" page="1" gridSize="10" guides="1" tooltips="1" connect="1" arrows="1" fold="1" pageScale="1" pageWidth="827" pageHeight="1169" math="0" shadow="0">
      <root>
        <mxCell id="0" />
        <mxCell id="1" parent="0" />
        <mxCell id="6KyY3WqF3SOxH_TrF618-17" style="edgeStyle=orthogonalEdgeStyle;rounded=0;orthogonalLoop=1;jettySize=auto;html=1;exitX=0.5;exitY=1;exitDx=0;exitDy=0;entryX=0.5;entryY=0;entryDx=0;entryDy=0;" edge="1" parent="1" source="6KyY3WqF3SOxH_TrF618-1" target="6KyY3WqF3SOxH_TrF618-7">
          <mxGeometry relative="1" as="geometry" />
        </mxCell>
        <mxCell id="6KyY3WqF3SOxH_TrF618-1" value="ログイン&lt;br&gt;(開始)" style="rounded=0;whiteSpace=wrap;html=1;" vertex="1" parent="1">
          <mxGeometry x="354" y="60" width="120" height="60" as="geometry" />
        </mxCell>
        <mxCell id="6KyY3WqF3SOxH_TrF618-2" value="ログイン&lt;br&gt;(終了)" style="rounded=0;whiteSpace=wrap;html=1;" vertex="1" parent="1">
          <mxGeometry x="354" y="720" width="120" height="60" as="geometry" />
        </mxCell>
        <mxCell id="6KyY3WqF3SOxH_TrF618-4" style="edgeStyle=orthogonalEdgeStyle;rounded=0;orthogonalLoop=1;jettySize=auto;html=1;exitX=0;exitY=0.5;exitDx=0;exitDy=0;entryX=1;entryY=0.5;entryDx=0;entryDy=0;" edge="1" parent="1" source="6KyY3WqF3SOxH_TrF618-3" target="6KyY3WqF3SOxH_TrF618-1">
          <mxGeometry relative="1" as="geometry" />
        </mxCell>
        <mxCell id="6KyY3WqF3SOxH_TrF618-5" value="引数" style="edgeLabel;html=1;align=center;verticalAlign=middle;resizable=0;points=[];" connectable="0" vertex="1" parent="6KyY3WqF3SOxH_TrF618-4">
          <mxGeometry x="0.1818" y="2" relative="1" as="geometry">
            <mxPoint x="19" y="-12" as="offset" />
          </mxGeometry>
        </mxCell>
        <mxCell id="6KyY3WqF3SOxH_TrF618-3" value="データ入力&lt;br&gt;(メールアドレス，パスワード)" style="shape=process;whiteSpace=wrap;html=1;backgroundOutline=1;" vertex="1" parent="1">
          <mxGeometry x="540" y="60" width="130" height="60" as="geometry" />
        </mxCell>
        <mxCell id="6KyY3WqF3SOxH_TrF618-18" style="edgeStyle=orthogonalEdgeStyle;rounded=0;orthogonalLoop=1;jettySize=auto;html=1;exitX=0.5;exitY=1;exitDx=0;exitDy=0;entryX=0.5;entryY=0;entryDx=0;entryDy=0;" edge="1" parent="1" source="6KyY3WqF3SOxH_TrF618-7" target="6KyY3WqF3SOxH_TrF618-8">
          <mxGeometry relative="1" as="geometry" />
        </mxCell>
        <mxCell id="6KyY3WqF3SOxH_TrF618-7" value="DBからデータ取得&lt;br&gt;(メールアドレス，&lt;br&gt;パスワード)" style="rounded=1;whiteSpace=wrap;html=1;arcSize=50;" vertex="1" parent="1">
          <mxGeometry x="354" y="170" width="120" height="60" as="geometry" />
        </mxCell>
        <mxCell id="6KyY3WqF3SOxH_TrF618-19" style="edgeStyle=orthogonalEdgeStyle;rounded=0;orthogonalLoop=1;jettySize=auto;html=1;exitX=0.5;exitY=1;exitDx=0;exitDy=0;entryX=0.5;entryY=0;entryDx=0;entryDy=0;" edge="1" parent="1" source="6KyY3WqF3SOxH_TrF618-8" target="6KyY3WqF3SOxH_TrF618-9">
          <mxGeometry relative="1" as="geometry" />
        </mxCell>
        <mxCell id="6KyY3WqF3SOxH_TrF618-8" value="メールアドレスで&lt;br&gt;絞り込み" style="rounded=1;whiteSpace=wrap;html=1;arcSize=50;" vertex="1" parent="1">
          <mxGeometry x="354" y="280" width="120" height="60" as="geometry" />
        </mxCell>
        <mxCell id="6KyY3WqF3SOxH_TrF618-16" style="edgeStyle=orthogonalEdgeStyle;rounded=0;orthogonalLoop=1;jettySize=auto;html=1;exitX=1;exitY=0.5;exitDx=0;exitDy=0;entryX=0.5;entryY=0;entryDx=0;entryDy=0;" edge="1" parent="1" source="6KyY3WqF3SOxH_TrF618-9" target="6KyY3WqF3SOxH_TrF618-13">
          <mxGeometry relative="1" as="geometry" />
        </mxCell>
        <mxCell id="6KyY3WqF3SOxH_TrF618-21" value="NO" style="edgeLabel;html=1;align=center;verticalAlign=middle;resizable=0;points=[];" connectable="0" vertex="1" parent="6KyY3WqF3SOxH_TrF618-16">
          <mxGeometry x="-0.681" y="3" relative="1" as="geometry">
            <mxPoint x="-17" y="-7" as="offset" />
          </mxGeometry>
        </mxCell>
        <mxCell id="6KyY3WqF3SOxH_TrF618-20" style="edgeStyle=orthogonalEdgeStyle;rounded=0;orthogonalLoop=1;jettySize=auto;html=1;exitX=0.5;exitY=1;exitDx=0;exitDy=0;entryX=0.5;entryY=0;entryDx=0;entryDy=0;" edge="1" parent="1" source="6KyY3WqF3SOxH_TrF618-9" target="6KyY3WqF3SOxH_TrF618-12">
          <mxGeometry relative="1" as="geometry" />
        </mxCell>
        <mxCell id="6KyY3WqF3SOxH_TrF618-22" value="YES" style="edgeLabel;html=1;align=center;verticalAlign=middle;resizable=0;points=[];" connectable="0" vertex="1" parent="6KyY3WqF3SOxH_TrF618-20">
          <mxGeometry x="-0.4686" y="-1" relative="1" as="geometry">
            <mxPoint x="18" y="-3" as="offset" />
          </mxGeometry>
        </mxCell>
        <mxCell id="6KyY3WqF3SOxH_TrF618-9" value="メールアドレスが&lt;br&gt;存在する" style="rhombus;whiteSpace=wrap;html=1;" vertex="1" parent="1">
          <mxGeometry x="333" y="390" width="161" height="60" as="geometry" />
        </mxCell>
        <mxCell id="6KyY3WqF3SOxH_TrF618-23" style="edgeStyle=orthogonalEdgeStyle;rounded=0;orthogonalLoop=1;jettySize=auto;html=1;exitX=0.5;exitY=1;exitDx=0;exitDy=0;entryX=0.5;entryY=0;entryDx=0;entryDy=0;" edge="1" parent="1" source="6KyY3WqF3SOxH_TrF618-12" target="6KyY3WqF3SOxH_TrF618-15">
          <mxGeometry relative="1" as="geometry" />
        </mxCell>
        <mxCell id="6KyY3WqF3SOxH_TrF618-30" value="一致" style="edgeLabel;html=1;align=center;verticalAlign=middle;resizable=0;points=[];" connectable="0" vertex="1" parent="6KyY3WqF3SOxH_TrF618-23">
          <mxGeometry x="-0.2552" y="-1" relative="1" as="geometry">
            <mxPoint x="17" as="offset" />
          </mxGeometry>
        </mxCell>
        <mxCell id="6KyY3WqF3SOxH_TrF618-25" style="edgeStyle=orthogonalEdgeStyle;rounded=0;orthogonalLoop=1;jettySize=auto;html=1;exitX=0;exitY=0.5;exitDx=0;exitDy=0;entryX=0.5;entryY=0;entryDx=0;entryDy=0;" edge="1" parent="1" source="6KyY3WqF3SOxH_TrF618-12" target="6KyY3WqF3SOxH_TrF618-14">
          <mxGeometry relative="1" as="geometry" />
        </mxCell>
        <mxCell id="6KyY3WqF3SOxH_TrF618-31" value="不一致" style="edgeLabel;html=1;align=center;verticalAlign=middle;resizable=0;points=[];" connectable="0" vertex="1" parent="6KyY3WqF3SOxH_TrF618-25">
          <mxGeometry x="-0.7757" y="1" relative="1" as="geometry">
            <mxPoint y="-11" as="offset" />
          </mxGeometry>
        </mxCell>
        <mxCell id="6KyY3WqF3SOxH_TrF618-12" value="パスワードの比較" style="rhombus;whiteSpace=wrap;html=1;" vertex="1" parent="1">
          <mxGeometry x="333" y="500" width="161" height="60" as="geometry" />
        </mxCell>
        <mxCell id="6KyY3WqF3SOxH_TrF618-29" style="edgeStyle=orthogonalEdgeStyle;rounded=0;orthogonalLoop=1;jettySize=auto;html=1;exitX=0.5;exitY=1;exitDx=0;exitDy=0;entryX=0.5;entryY=0;entryDx=0;entryDy=0;" edge="1" parent="1" source="6KyY3WqF3SOxH_TrF618-13" target="6KyY3WqF3SOxH_TrF618-2">
          <mxGeometry relative="1" as="geometry">
            <Array as="points">
              <mxPoint x="600" y="690" />
              <mxPoint x="414" y="690" />
            </Array>
          </mxGeometry>
        </mxCell>
        <mxCell id="6KyY3WqF3SOxH_TrF618-13" value="イベント番号2を返す" style="rounded=1;whiteSpace=wrap;html=1;arcSize=50;" vertex="1" parent="1">
          <mxGeometry x="540" y="460" width="120" height="60" as="geometry" />
        </mxCell>
        <mxCell id="6KyY3WqF3SOxH_TrF618-28" style="edgeStyle=orthogonalEdgeStyle;rounded=0;orthogonalLoop=1;jettySize=auto;html=1;exitX=0.5;exitY=1;exitDx=0;exitDy=0;entryX=0.5;entryY=0;entryDx=0;entryDy=0;startArrow=none;startFill=0;" edge="1" parent="1" source="6KyY3WqF3SOxH_TrF618-14" target="6KyY3WqF3SOxH_TrF618-2">
          <mxGeometry relative="1" as="geometry">
            <Array as="points">
              <mxPoint x="240" y="690" />
              <mxPoint x="414" y="690" />
            </Array>
          </mxGeometry>
        </mxCell>
        <mxCell id="6KyY3WqF3SOxH_TrF618-14" value="イベント番号3を返す" style="rounded=1;whiteSpace=wrap;html=1;arcSize=50;" vertex="1" parent="1">
          <mxGeometry x="180" y="585" width="120" height="60" as="geometry" />
        </mxCell>
        <mxCell id="6KyY3WqF3SOxH_TrF618-24" style="edgeStyle=orthogonalEdgeStyle;rounded=0;orthogonalLoop=1;jettySize=auto;html=1;exitX=0.5;exitY=1;exitDx=0;exitDy=0;entryX=0.5;entryY=0;entryDx=0;entryDy=0;" edge="1" parent="1" source="6KyY3WqF3SOxH_TrF618-15" target="6KyY3WqF3SOxH_TrF618-2">
          <mxGeometry relative="1" as="geometry" />
        </mxCell>
        <mxCell id="6KyY3WqF3SOxH_TrF618-15" value="イベント番号1を返す" style="rounded=1;whiteSpace=wrap;html=1;arcSize=50;" vertex="1" parent="1">
          <mxGeometry x="354" y="610" width="120" height="60" as="geometry" />
        </mxCell>
      </root>
    </mxGraphModel>
  </diagram>
</mxfile>
